<?xml version="1.0" encoding="UTF-8"?>
<!DOCTYPE svg PUBLIC "-//W3C//DTD SVG 1.1//EN" "http://www.w3.org/Graphics/SVG/1.1/DTD/svg11.dtd">
<svg version="1.1" xmlns="http://www.w3.org/2000/svg" xmlns:xlink="http://www.w3.org/1999/xlink" x="0" y="0" width="200" height="50" viewBox="0, 0, 200, 50">
  <g id="Background">
    <rect x="0" y="0" width="200" height="50" fill="#000000" fill-opacity="0"/>
  </g>
  <g id="Background"/>
  <g id="Layer_1">
    <path d="M13.901,35.982 L18.008,35.982 L18.008,10.674 L13.901,10.674 L13.901,10.156 L35.065,10.156 L35.065,16.557 L34.658,16.557 Q34.177,15.114 33.622,14.023 Q33.067,12.931 32.29,12.173 Q31.513,11.414 30.44,11.044 Q29.367,10.674 27.85,10.674 L21.708,10.674 L21.708,22.662 L24.113,22.662 Q25.334,22.662 26.185,22.44 Q27.036,22.218 27.646,21.608 Q28.257,20.997 28.683,19.943 Q29.108,18.888 29.515,17.223 L29.922,17.223 L29.922,28.73 L29.515,28.73 Q29.256,27.657 28.979,26.658 Q28.701,25.659 28.201,24.882 Q27.702,24.105 26.87,23.643 Q26.037,23.18 24.705,23.18 L21.708,23.18 L21.708,35.982 L25.815,35.982 L25.815,36.5 L13.901,36.5 z" fill="#505050"/>
    <path d="M46.794,26.806 Q46.868,26.288 46.868,25.844 Q46.868,25.4 46.868,24.919 Q46.868,23.661 46.628,22.847 Q46.387,22.033 45.962,21.552 Q45.536,21.071 44.925,20.867 Q44.315,20.664 43.612,20.664 Q42.354,20.664 41.54,21.163 Q40.726,21.663 40.245,22.514 Q39.764,23.365 39.524,24.475 Q39.283,25.585 39.209,26.806 z M39.172,27.324 Q39.172,27.694 39.153,28.082 Q39.135,28.471 39.135,29.063 Q39.135,30.284 39.283,31.616 Q39.431,32.948 39.931,34.021 Q40.43,35.094 41.41,35.797 Q42.391,36.5 44.019,36.5 Q45.647,36.5 46.701,36.019 Q47.756,35.538 48.367,34.854 Q48.977,34.169 49.273,33.466 Q49.569,32.763 49.717,32.319 L50.272,32.43 Q50.161,32.837 49.847,33.596 Q49.532,34.354 48.847,35.112 Q48.163,35.871 46.998,36.444 Q45.832,37.018 43.982,37.018 Q42.132,37.018 40.56,36.426 Q38.987,35.834 37.84,34.724 Q36.693,33.614 36.064,32.078 Q35.435,30.543 35.435,28.656 Q35.435,27.028 36.083,25.492 Q36.73,23.957 37.859,22.773 Q38.987,21.589 40.504,20.867 Q42.021,20.146 43.76,20.146 Q44.796,20.146 45.98,20.516 Q47.164,20.886 48.181,21.719 Q49.199,22.551 49.883,23.92 Q50.568,25.289 50.568,27.324 z" fill="#505050"/>
    <path d="M65.294,26.806 Q65.368,26.288 65.368,25.844 Q65.368,25.4 65.368,24.919 Q65.368,23.661 65.128,22.847 Q64.887,22.033 64.462,21.552 Q64.036,21.071 63.425,20.867 Q62.815,20.664 62.112,20.664 Q60.854,20.664 60.04,21.163 Q59.226,21.663 58.745,22.514 Q58.264,23.365 58.024,24.475 Q57.783,25.585 57.709,26.806 z M57.672,27.324 Q57.672,27.694 57.653,28.082 Q57.635,28.471 57.635,29.063 Q57.635,30.284 57.783,31.616 Q57.931,32.948 58.431,34.021 Q58.93,35.094 59.91,35.797 Q60.891,36.5 62.519,36.5 Q64.147,36.5 65.201,36.019 Q66.256,35.538 66.867,34.854 Q67.477,34.169 67.773,33.466 Q68.069,32.763 68.217,32.319 L68.772,32.43 Q68.661,32.837 68.347,33.596 Q68.032,34.354 67.348,35.112 Q66.663,35.871 65.497,36.444 Q64.332,37.018 62.482,37.018 Q60.632,37.018 59.06,36.426 Q57.487,35.834 56.34,34.724 Q55.193,33.614 54.564,32.078 Q53.935,30.543 53.935,28.656 Q53.935,27.028 54.583,25.492 Q55.23,23.957 56.359,22.773 Q57.487,21.589 59.004,20.867 Q60.521,20.146 62.26,20.146 Q63.296,20.146 64.48,20.516 Q65.664,20.886 66.682,21.719 Q67.699,22.551 68.383,23.92 Q69.068,25.289 69.068,27.324 z" fill="#505050"/>
    <path d="M76.394,28.027 Q76.394,29.951 76.505,31.524 Q76.616,33.096 77.06,34.206 Q77.504,35.316 78.392,35.908 Q79.28,36.5 80.797,36.5 Q82.351,36.5 83.294,35.834 Q84.238,35.168 84.756,34.113 Q85.274,33.059 85.459,31.764 Q85.644,30.469 85.644,29.248 Q85.644,27.805 85.589,26.75 Q85.533,25.696 85.385,24.882 Q85.237,24.068 84.978,23.476 Q84.719,22.884 84.349,22.366 Q83.794,21.626 82.906,21.145 Q82.018,20.664 80.649,20.664 Q79.354,20.664 78.521,21.182 Q77.689,21.7 77.227,22.662 Q76.764,23.624 76.579,24.975 Q76.394,26.325 76.394,28.027 z M82.795,9.823 L88.826,9.823 L88.826,35.982 L91.675,35.982 L91.675,36.5 L85.718,36.5 L85.718,33.281 L85.644,33.281 Q85.496,33.725 85.2,34.354 Q84.904,34.983 84.33,35.575 Q83.757,36.167 82.887,36.592 Q82.018,37.018 80.76,37.018 Q79.132,37.018 77.671,36.315 Q76.209,35.612 75.099,34.428 Q73.989,33.244 73.341,31.708 Q72.694,30.173 72.694,28.471 Q72.694,26.806 73.323,25.289 Q73.952,23.772 75.025,22.643 Q76.098,21.515 77.504,20.83 Q78.91,20.146 80.501,20.146 Q82.536,20.146 83.794,21.145 Q85.052,22.144 85.57,23.587 L85.644,23.587 L85.644,10.341 L82.795,10.341 z" fill="#505050"/>
    <path d="M101.628,23.254 Q102.368,23.402 103.182,23.476 Q103.996,23.55 104.625,23.55 Q107.363,23.55 108.899,21.941 Q110.434,20.331 110.434,17.075 Q110.434,15.188 110.064,13.93 Q109.694,12.672 108.899,11.914 Q108.103,11.155 106.826,10.859 Q105.55,10.563 103.774,10.563 Q103.071,10.563 102.498,10.6 Q101.924,10.637 101.628,10.674 z M93.821,35.982 L97.928,35.982 L97.928,10.674 L93.821,10.674 L93.821,10.156 L100.777,10.156 Q101.295,10.156 101.813,10.138 Q102.331,10.119 102.849,10.082 Q103.367,10.082 103.867,10.064 Q104.366,10.045 104.884,10.045 Q106.993,10.045 108.788,10.545 Q110.582,11.044 111.896,11.969 Q113.209,12.894 113.949,14.189 Q114.689,15.484 114.689,17.075 Q114.689,18.74 113.838,20.035 Q112.987,21.33 111.581,22.218 Q110.175,23.106 108.307,23.587 Q106.438,24.068 104.403,24.068 Q103.885,24.068 103.071,23.976 Q102.257,23.883 101.628,23.772 L101.628,35.982 L105.735,35.982 L105.735,36.5 L93.821,36.5 z" fill="#505050"/>
    <path d="M125.123,27.435 L125.049,27.435 Q124.975,27.916 123.828,28.397 L121.053,29.507 Q119.869,29.988 119.24,30.858 Q118.611,31.727 118.611,33.022 Q118.611,33.577 118.722,34.169 Q118.833,34.761 119.129,35.223 Q119.425,35.686 119.962,35.982 Q120.498,36.278 121.349,36.278 Q122.57,36.278 123.329,35.76 Q124.087,35.242 124.476,34.465 Q124.864,33.688 124.994,32.781 Q125.123,31.875 125.123,31.135 z M131.598,36.093 Q131.117,36.463 130.451,36.74 Q129.785,37.018 128.823,37.018 Q127.047,37.018 126.252,36.259 Q125.456,35.501 125.16,34.132 L125.086,34.132 Q124.938,34.465 124.679,34.965 Q124.42,35.464 123.884,35.926 Q123.347,36.389 122.459,36.703 Q121.571,37.018 120.202,37.018 Q118.648,37.018 117.723,36.667 Q116.798,36.315 116.28,35.797 Q115.762,35.279 115.596,34.632 Q115.429,33.984 115.429,33.429 Q115.429,32.134 115.947,31.357 Q116.465,30.58 117.298,30.117 Q118.13,29.655 119.148,29.359 Q120.165,29.063 121.201,28.73 Q122.422,28.323 123.218,28.027 Q124.013,27.731 124.457,27.306 Q124.901,26.88 125.068,26.233 Q125.234,25.585 125.234,24.475 Q125.234,23.587 125.123,22.884 Q125.012,22.181 124.716,21.681 Q124.42,21.182 123.865,20.923 Q123.31,20.664 122.385,20.664 Q121.164,20.664 120.369,21.089 Q119.573,21.515 119.573,22.477 Q119.573,23.106 119.684,23.716 Q119.795,24.327 119.795,24.623 Q119.795,25.141 119.425,25.492 Q119.055,25.844 118.352,25.844 Q117.131,25.844 116.835,25.4 Q116.539,24.956 116.539,24.253 Q116.539,23.439 116.909,22.699 Q117.279,21.959 118.001,21.385 Q118.722,20.812 119.814,20.479 Q120.905,20.146 122.311,20.146 Q124.013,20.146 125.16,20.571 Q126.307,20.997 127.01,21.719 Q127.713,22.44 128.009,23.346 Q128.305,24.253 128.305,25.252 L128.305,34.465 Q128.305,35.538 128.638,35.908 Q128.971,36.278 129.6,36.278 Q130.007,36.278 130.451,36.13 Q130.895,35.982 131.302,35.686 z" fill="#505050"/>
    <path d="M148.026,28.027 Q148.026,26.325 147.841,24.975 Q147.656,23.624 147.193,22.662 Q146.731,21.7 145.898,21.182 Q145.066,20.664 143.771,20.664 Q142.402,20.664 141.514,21.145 Q140.626,21.626 140.071,22.366 Q139.664,22.884 139.423,23.476 Q139.183,24.068 139.035,24.882 Q138.887,25.696 138.831,26.751 Q138.776,27.805 138.776,29.248 Q138.776,30.469 138.961,31.764 Q139.146,33.059 139.664,34.114 Q140.182,35.168 141.125,35.834 Q142.069,36.5 143.623,36.5 Q145.14,36.5 146.028,35.908 Q146.916,35.316 147.36,34.206 Q147.804,33.096 147.915,31.524 Q148.026,29.951 148.026,28.027 z M132.745,46.342 L135.594,46.342 L135.594,21.145 L132.745,21.145 L132.745,20.627 L138.702,20.627 L138.702,23.735 L138.776,23.735 Q139.331,22.181 140.607,21.164 Q141.884,20.146 143.919,20.146 Q145.51,20.146 146.916,20.831 Q148.322,21.515 149.395,22.644 Q150.468,23.772 151.097,25.289 Q151.726,26.806 151.726,28.471 Q151.726,30.173 151.078,31.709 Q150.431,33.244 149.321,34.428 Q148.211,35.612 146.749,36.315 Q145.288,37.018 143.66,37.018 Q142.402,37.018 141.533,36.593 Q140.663,36.167 140.108,35.594 Q139.553,35.02 139.257,34.41 Q138.961,33.799 138.85,33.429 L138.776,33.429 L138.776,46.342 L141.625,46.342 L141.625,46.86 L132.745,46.86 z" fill="#505050"/>
    <path d="M166.674,26.806 Q166.748,26.288 166.748,25.844 Q166.748,25.4 166.748,24.919 Q166.748,23.661 166.508,22.847 Q166.267,22.033 165.842,21.552 Q165.416,21.071 164.805,20.867 Q164.195,20.664 163.492,20.664 Q162.234,20.664 161.42,21.163 Q160.606,21.663 160.125,22.514 Q159.644,23.365 159.404,24.475 Q159.163,25.585 159.089,26.806 z M159.052,27.324 Q159.052,27.694 159.033,28.082 Q159.015,28.471 159.015,29.063 Q159.015,30.284 159.163,31.616 Q159.311,32.948 159.811,34.021 Q160.31,35.094 161.29,35.797 Q162.271,36.5 163.899,36.5 Q165.527,36.5 166.581,36.019 Q167.636,35.538 168.247,34.854 Q168.857,34.169 169.153,33.466 Q169.449,32.763 169.597,32.319 L170.152,32.43 Q170.041,32.837 169.727,33.596 Q169.412,34.354 168.727,35.112 Q168.043,35.871 166.878,36.444 Q165.712,37.018 163.862,37.018 Q162.012,37.018 160.439,36.426 Q158.867,35.834 157.72,34.724 Q156.573,33.614 155.944,32.078 Q155.315,30.543 155.315,28.656 Q155.315,27.028 155.962,25.492 Q156.61,23.957 157.738,22.773 Q158.867,21.589 160.384,20.867 Q161.901,20.146 163.64,20.146 Q164.676,20.146 165.86,20.516 Q167.044,20.886 168.061,21.719 Q169.079,22.551 169.764,23.92 Q170.448,25.289 170.448,27.324 z" fill="#505050"/>
    <path d="M173.149,35.982 L175.998,35.982 L175.998,21.145 L173.149,21.145 L173.149,20.627 L179.106,20.627 L179.106,24.364 L179.18,24.364 Q179.328,23.809 179.661,23.106 Q179.994,22.403 180.586,21.755 Q181.178,21.108 182.01,20.664 Q182.843,20.22 184.027,20.22 Q184.878,20.22 185.507,20.497 Q186.136,20.775 186.543,21.2 Q186.95,21.626 187.135,22.181 Q187.32,22.736 187.32,23.291 Q187.32,24.512 186.765,24.919 Q186.21,25.326 185.47,25.326 Q183.842,25.326 183.842,24.29 Q183.842,23.957 183.916,23.753 Q183.99,23.55 184.083,23.346 Q184.175,23.143 184.249,22.884 Q184.323,22.625 184.323,22.144 Q184.323,20.96 183.028,20.96 Q182.436,20.96 181.77,21.404 Q181.104,21.848 180.531,22.699 Q179.957,23.55 179.568,24.752 Q179.18,25.955 179.18,27.509 L179.18,35.982 L182.399,35.982 L182.399,36.5 L173.149,36.5 z" fill="#505050"/>
  </g>
</svg>
